<svg xmlns="http://www.w3.org/2000/svg" width="480" height="360"><rect width="80.5" height="80.5" x="216" y="124" fill-opacity="0"/><path fill="red" d="M263.614 181.183L263.614 181.183Q263.820 181.595 263.563 182.006Q263.305 182.418 262.842 182.418L262.842 182.418L258.418 182.418Q257.904 182.418 257.646 181.904L257.646 181.904Q256.720 179.949 250.084 165.878Q243.447 151.807 242.264 149.183L242.264 149.183Q242.058 148.772 242.289 148.386Q242.521 148 243.035 148L243.035 148L247.408 148Q247.974 148 248.180 148.463L248.180 148.463Q248.952 150.058 252.219 156.977Q255.486 163.897 259.010 171.408Q262.534 178.920 263.614 181.183Z"/></svg>