<svg xmlns="http://www.w3.org/2000/svg" width="480" height="360"><rect width="80.5" height="80.5" x="216" y="124" fill-opacity="0"/><path fill="red" d="M259.138 155.305L259.138 159.833Q259.138 160.347 258.727 160.553L258.727 160.553L249.929 165.235Q256.875 168.887 258.727 169.865L258.727 169.865Q259.138 170.122 259.138 170.637L259.138 170.637L259.138 175.113Q259.138 175.627 258.727 175.859Q258.315 176.090 257.904 175.884L257.904 175.884Q256.051 174.907 250.006 171.691Q243.961 168.476 242.984 167.961L242.984 167.961Q242.521 167.704 242.521 167.190L242.521 167.190L242.521 163.228Q242.521 162.714 242.984 162.457L242.984 162.457Q244.116 161.839 250.212 158.624Q256.309 155.408 257.904 154.534L257.904 154.534Q258.315 154.328 258.727 154.559Q259.138 154.791 259.138 155.305L259.138 155.305Z"/></svg>