<svg xmlns="http://www.w3.org/2000/svg" width="480" height="360"><rect width="80.5" height="80.5" x="216" y="124" fill-opacity="0"/><path fill="red" d="M249.775 174.289L261.299 174.289Q261.659 174.289 261.891 174.547Q262.122 174.804 262.122 175.164L262.122 175.164L262.122 179.125Q262.122 179.486 261.891 179.743Q261.659 180 261.299 180L261.299 180L244.939 180Q244.579 180 244.322 179.743Q244.064 179.486 244.064 179.125L244.064 179.125L244.064 148.823Q244.064 148.463 244.322 148.232Q244.579 148 244.939 148L244.939 148L248.900 148Q249.260 148 249.518 148.232Q249.775 148.463 249.775 148.823L249.775 148.823L249.775 174.289Z"/></svg>